<svg width="177" height="135" viewBox="0 0 177 135" fill="none" xmlns="http://www.w3.org/2000/svg">
<mask id="path-1-inside-1" fill="white">
<path d="M0 26.1909H176C176.552 26.1909 177 26.6386 177 27.1909V120.409C177 128.141 170.732 134.409 163 134.409H14C6.26801 134.409 0 128.141 0 120.409V26.1909Z"/>
</mask>
<path d="M0 26.1909H176C176.552 26.1909 177 26.6386 177 27.1909V120.409C177 128.141 170.732 134.409 163 134.409H14C6.26801 134.409 0 128.141 0 120.409V26.1909Z" fill="white" stroke="#4399FF" stroke-width="4" mask="url(#path-1-inside-1)"/>
<path d="M176 26.1909C176 29.2239 173.868 32.3297 169.481 35.3302C165.126 38.3085 158.759 41.0304 150.801 43.3323C134.899 47.9322 112.872 50.7909 88.5 50.7909C64.128 50.7909 42.101 47.9322 26.1989 43.3323C18.2412 41.0304 11.8741 38.3085 7.51928 35.3302C3.13193 32.3297 1 29.2239 1 26.1909C1 23.158 3.13193 20.0522 7.51928 17.0517C11.8741 14.0734 18.2412 11.3515 26.1989 9.04963C42.101 4.44971 64.128 1.59094 88.5 1.59094C112.872 1.59094 134.899 4.44971 150.801 9.04963C158.759 11.3515 165.126 14.0734 169.481 17.0517C173.868 20.0522 176 23.158 176 26.1909Z" fill="white" stroke="#4399FF" stroke-width="2"/>
</svg>
