<svg width="269" height="53" viewBox="0 0 269 53" fill="none" xmlns="http://www.w3.org/2000/svg">
<path d="M14.1504 36.9968C14.1504 40.8932 10.9828 44.0519 7.07522 44.0519C3.16768 44.0519 0 40.8932 0 36.9968C0 33.1003 3.16768 29.9416 7.07522 29.9416C10.9828 29.9416 14.1504 33.1003 14.1504 36.9968Z" fill="white"/>
<path d="M28.9911 48.526C28.9911 50.9969 26.9824 53 24.5044 53C22.0265 53 20.0177 50.9969 20.0177 48.526C20.0177 46.055 22.0265 44.0519 24.5044 44.0519C26.9824 44.0519 28.9911 46.055 28.9911 48.526Z" fill="white"/>
<path d="M24.3319 0L39 19.789L24.3319 39.5779L9.66372 19.789L24.3319 0Z" fill="white"/>
<path d="M68.4595 16.0208L73.6683 30.753L78.8492 16.0208H84.3366V36.3333H80.1445V30.7808L80.5623 21.1965L75.0889 36.3333H72.2198L66.7604 21.2105L67.1782 30.7808V36.3333H63V16.0208H68.4595Z" fill="white"/>
<path d="M100.186 27.5303H92.1638V32.9711H101.579V36.3333H87.9856V16.0208H101.551V19.4108H92.1638V24.2518H100.186V27.5303Z" fill="white"/>
<path d="M109.489 16.0208L114.698 30.753L119.879 16.0208H125.366V36.3333H121.174V30.7808L121.592 21.1965L116.119 36.3333H113.25L107.79 21.2105L108.208 30.7808V36.3333H104.03V16.0208H109.489Z" fill="white"/>
<path d="M145.673 26.6375C145.673 28.6371 145.319 30.3902 144.614 31.897C143.908 33.4036 142.896 34.5662 141.578 35.3847C140.269 36.2031 138.764 36.6124 137.065 36.6124C135.385 36.6124 133.885 36.2078 132.567 35.3986C131.248 34.5894 130.227 33.4362 129.503 31.9388C128.779 30.4321 128.412 28.7022 128.403 26.749V25.7446C128.403 23.745 128.76 21.9871 129.475 20.4712C130.199 18.9459 131.216 17.7786 132.525 16.9695C133.843 16.151 135.348 15.7418 137.037 15.7418C138.727 15.7418 140.227 16.151 141.536 16.9695C142.854 17.7786 143.871 18.9459 144.586 20.4712C145.31 21.9871 145.673 23.7403 145.673 25.7306V26.6375ZM141.438 25.7167C141.438 23.5869 141.058 21.9686 140.296 20.8618C139.535 19.755 138.449 19.2017 137.037 19.2017C135.635 19.2017 134.554 19.7504 133.792 20.8479C133.031 21.936 132.646 23.5357 132.636 25.647V26.6375C132.636 28.7115 133.017 30.3205 133.778 31.4644C134.54 32.6084 135.635 33.1804 137.065 33.1804C138.467 33.1804 139.544 32.6317 140.296 31.5342C141.048 30.4275 141.429 28.8184 141.438 26.7072V25.7167Z" fill="white"/>
<path d="M161.271 16.0208L166.479 30.753L171.661 16.0208H177.148V36.3333H172.956V30.7808L173.374 21.1965L167.9 36.3333H165.031L159.572 21.2105L159.99 30.7808V36.3333H155.812V16.0208H161.271Z" fill="white"/>
<path d="M192.496 32.1481H185.17L183.778 36.3333H179.335L186.883 16.0208H190.755L198.345 36.3333H193.903L192.496 32.1481ZM186.298 28.758H191.368L188.819 21.1547L186.298 28.758Z" fill="white"/>
<path d="M204.417 29.1765V41.492H200.24V16.0208H208.15C209.673 16.0208 211.01 16.2998 212.161 16.8578C213.322 17.4159 214.213 18.2111 214.835 19.2435C215.457 20.2665 215.768 21.4338 215.768 22.7451C215.768 24.7354 215.086 26.3073 213.721 27.4605C212.366 28.6045 210.485 29.1765 208.08 29.1765H204.417ZM204.417 25.7864H208.15C209.255 25.7864 210.095 25.526 210.671 25.0052C211.256 24.4843 211.548 23.7403 211.548 22.7731C211.548 21.7779 211.256 20.9734 210.671 20.3595C210.086 19.7457 209.278 19.4295 208.247 19.4108H204.417V25.7864Z" fill="white"/>
<path d="M222.83 29.1765V36.3333H218.651V16.0208H226.562C228.084 16.0208 229.422 16.2998 230.573 16.8578C231.734 17.4159 232.625 18.2111 233.247 19.2435C233.869 20.2665 234.18 21.4338 234.18 22.7451C234.18 24.7354 233.497 26.3073 232.133 27.4605C230.778 28.6045 228.897 29.1765 226.493 29.1765H222.83ZM222.83 25.7864H226.562C227.667 25.7864 228.508 25.526 229.083 25.0052C229.667 24.4843 229.961 23.7403 229.961 22.7731C229.961 21.7779 229.667 20.9734 229.083 20.3595C228.498 19.7457 227.69 19.4295 226.66 19.4108H222.83V25.7864Z" fill="white"/>
<path d="M249.264 27.5303H241.242V32.9711H250.657V36.3333H237.063V16.0208H250.628V19.4108H241.242V24.2518H249.264V27.5303Z" fill="white"/>
<path d="M260.614 28.8975H257.286V36.3333H253.107V16.0208H260.642C263.038 16.0208 264.886 16.5556 266.185 17.6251C267.485 18.6947 268.135 20.2061 268.135 22.1592C268.135 23.545 267.833 24.7029 267.23 25.633C266.636 26.5537 265.73 27.2885 264.514 27.8372L268.901 36.138V36.3333H264.416L260.614 28.8975ZM257.286 25.5074H260.656C261.705 25.5074 262.517 25.2423 263.093 24.7122C263.669 24.1727 263.957 23.4334 263.957 22.494C263.957 21.5361 263.683 20.7827 263.135 20.2339C262.597 19.6852 261.765 19.4108 260.642 19.4108H257.286V25.5074Z" fill="white"/>
<path d="M116.651 3.79365V3H115.859V3.79365H116.651ZM167.359 3.79365H168.151V3H167.359V3.79365ZM166.799 13.085C167.108 13.3949 167.609 13.3949 167.919 13.085L172.961 8.03425C173.27 7.7243 173.27 7.22179 172.961 6.91185C172.651 6.60191 172.15 6.60191 171.841 6.91185L167.359 11.4014L162.877 6.91185C162.567 6.60191 162.065 6.60191 161.756 6.91185C161.447 7.22179 161.447 7.7243 161.756 8.03425L166.799 13.085ZM117.443 13.3175V3.79365H115.859V13.3175H117.443ZM116.651 4.5873H167.359V3H116.651V4.5873ZM166.566 3.79365V12.5238H168.151V3.79365H166.566Z" fill="black"/>
<path d="M256.097 52.2063V53H256.89V52.2063H256.097ZM226.782 52.2063H225.99V53H226.782V52.2063ZM227.342 41.3277C227.032 41.0178 226.531 41.0178 226.222 41.3277L221.179 46.3785C220.87 46.6884 220.87 47.1908 221.179 47.5008C221.488 47.8108 221.99 47.8108 222.3 47.5008L226.782 43.0112L231.264 47.5008C231.573 47.8108 232.075 47.8108 232.384 47.5008C232.693 47.1908 232.693 46.6884 232.384 46.3785L227.342 41.3277ZM255.305 41.0952V52.2063H256.89V41.0952H255.305ZM256.097 51.4127H226.782V53H256.097V51.4127ZM227.574 52.2063V41.8889H225.99V52.2063H227.574Z" fill="black"/>
</svg>
