<svg width="39" height="53" viewBox="0 0 39 53" fill="none" xmlns="http://www.w3.org/2000/svg">
<path d="M14.1504 36.9968C14.1504 40.8932 10.9828 44.0519 7.07522 44.0519C3.16768 44.0519 0 40.8932 0 36.9968C0 33.1003 3.16768 29.9416 7.07522 29.9416C10.9828 29.9416 14.1504 33.1003 14.1504 36.9968Z" fill="white"/>
<path d="M28.9911 48.526C28.9911 50.9969 26.9824 53 24.5044 53C22.0265 53 20.0177 50.9969 20.0177 48.526C20.0177 46.055 22.0265 44.0519 24.5044 44.0519C26.9824 44.0519 28.9911 46.055 28.9911 48.526Z" fill="white"/>
<path d="M24.3319 0L39 19.789L24.3319 39.5779L9.66372 19.789L24.3319 0Z" fill="white"/>
</svg>
