<svg width="27" height="31" viewBox="0 0 27 31" fill="none" xmlns="http://www.w3.org/2000/svg">
<path d="M4.48014 3.77859C9.04022 2.23284 12.2826 1.81793 15.05 1.98612C17.8342 2.15534 20.201 2.91494 23.0826 3.84073C24.8112 4.39612 26 5.99144 26 7.77771V26C26 28.2091 24.2091 30 22 30H5.98337C3.78011 30 1.99009 28.2155 1.98095 26.0103C1.97991 25.7607 1.97889 25.5133 1.97786 25.268C1.95229 19.1213 1.93216 14.2859 1.97527 7.37045C1.98547 5.73405 2.98676 4.28481 4.48014 3.77859Z" stroke="#4399FF" stroke-width="2"/>
<path d="M26 7C26 8.03168 25.052 9.283 22.7733 10.3347C20.5796 11.3472 17.4788 12 14 12C10.5212 12 7.42035 11.3472 5.22667 10.3347C2.94804 9.283 2 8.03168 2 7C2 5.96832 2.94804 4.71699 5.22667 3.66532C7.42035 2.65285 10.5212 2 14 2C17.4788 2 20.5796 2.65285 22.7733 3.66532C25.052 4.71699 26 5.96832 26 7Z" stroke="#4399FF" stroke-width="2"/>
</svg>
