<svg width="185" height="253" viewBox="0 0 185 253" fill="none" xmlns="http://www.w3.org/2000/svg">
<path d="M67.1239 176.607C67.1239 195.207 52.0977 210.286 33.5619 210.286C15.0262 210.286 0 195.207 0 176.607C0 158.007 15.0262 142.929 33.5619 142.929C52.0977 142.929 67.1239 158.007 67.1239 176.607Z" fill="#4399FF"/>
<path d="M137.522 231.643C137.522 243.438 127.993 253 116.239 253C104.485 253 94.9558 243.438 94.9558 231.643C94.9558 219.848 104.485 210.286 116.239 210.286C127.993 210.286 137.522 219.848 137.522 231.643Z" fill="#4399FF"/>
<path d="M115.42 0L185 94.4643L115.42 188.929L45.8407 94.4643L115.42 0Z" fill="#4399FF"/>
</svg>
